<?xml version="1.0" encoding="UTF-8" standalone="no"?>
<!-- Created with Inkscape (http://www.inkscape.org/) -->

<svg
   width="43.37281mm"
   height="43.375454mm"
   viewBox="0 0 43.37281 43.375454"
   version="1.1"
   id="svg1"
   xml:space="preserve"
   xmlns="http://www.w3.org/2000/svg"
   xmlns:svg="http://www.w3.org/2000/svg"><defs
     id="defs1" /><ellipse
     style="display:inline;fill:#e6e6e6;fill-rule:evenodd;stroke-width:0.479014"
     id="path1-72"
     cx="20.915398"
     cy="22.342272"
     rx="21.683334"
     ry="21.690798"
     transform="matrix(0.99953041,-0.03064232,0.03494856,0.99938911,0,0)" /><g
     id="g1"
     transform="matrix(1.5156011,0,0,1.5156011,-11.181543,-0.26415714)"
     style="stroke-width:0.659804"><path
       style="fill:#f39939;stroke-width:0.197941;stroke-linecap:round;stroke-linejoin:round;paint-order:stroke fill markers"
       d="m 20.813016,25.797142 c -1.444568,-0.163489 -2.777585,-0.700713 -3.566378,-1.437298 -0.307295,-0.286957 -0.295619,-0.355275 0.116931,-0.684169 0.726334,-0.57905 3.037878,-2.050443 4.07987,-2.597004 0.425012,-0.222935 0.486674,-0.242448 0.690021,-0.218364 0.444,0.05258 1.443669,0.608727 2.105463,1.171324 0.514226,0.437149 1.436694,1.5377 1.672526,1.995409 0.04701,0.09123 0.09947,0.240509 0.116581,0.331724 0.02743,0.146209 0.01415,0.180119 -0.112139,0.286385 -0.362863,0.305329 -1.327369,0.736359 -2.111826,0.943758 -0.876372,0.2317 -2.057283,0.313914 -2.991049,0.208235 z"
       id="path3" /><path
       style="fill:#f39939;stroke-width:0.197941;stroke-linecap:round;stroke-linejoin:round;paint-order:stroke fill markers"
       d="m 20.944603,15.837523 c -0.02763,-0.295901 0.04778,-0.192989 0.03692,-0.453154 l -0.02196,-0.526069 0.04508,-0.298734 c 0.1417,-0.93901 -0.08766,-1.081447 -1.05953,-1.666275 -0.344042,-0.20703 -0.603658,-0.498912 -0.758825,-0.61831 -0.289104,-0.222461 -1.934921,-1.509939 -1.904262,-1.540598 0.0094,-0.0094 0.151709,0.01357 0.316269,0.05102 0.16456,0.03745 1.987445,0.277626 2.514801,0.331617 1.71675,0.17576 4.184886,0.79526 4.784487,0.829036 0.05787,0.0033 -1.08315,0.663383 -1.418554,0.866159 -0.128623,0.07776 -0.40224,0.210049 -0.608038,0.293969 -0.708527,0.288924 -0.415056,0.289145 -0.444827,1.044082 -0.03336,0.845903 0.02943,0.860648 0.282167,1.417516 0.104072,0.229309 0.201349,0.444926 0.201763,0.505697 3.18e-4,0.04657 0.03092,0.02401 -0.08358,0.303571 -0.41165,1.005074 -0.69167,1.450506 -0.911856,1.450506 -0.392807,0 -0.929382,-1.554488 -0.970055,-1.990033 z"
       id="path5" /><path
       style="fill:#3c3c3c;fill-opacity:1;stroke-width:0.659804"
       d="m 20.243149,26.947717 c -2.334776,-0.221545 -3.760952,-1.368381 -4.036669,-3.246013 -0.548643,-3.736259 0.743884,-7.060729 3.316012,-8.529008 0.910615,-0.51982 1.321095,-0.882339 1.21774,-1.07546 -0.0731,-0.136591 -0.617474,-0.541447 -1.222389,-0.909108 -1.890564,-1.149062 -3.079347,-3.2390014 -3.421881,-6.0158378 -0.506692,-4.1075864 0.644636,-5.1729283 5.59045,-5.1729283 4.945812,0 6.097142,1.0653419 5.59045,5.1729283 -0.342536,2.7768364 -1.53132,4.8667758 -3.421877,6.0158378 -0.604919,0.367661 -1.14929,0.77252 -1.222394,0.909108 -0.103349,0.193121 0.307125,0.55564 1.217744,1.07546 2.572123,1.468279 3.864654,4.792749 3.31601,8.529008 -0.277591,1.890409 -1.703496,3.027955 -4.070495,3.247322 -0.288229,0.0267 -2.568428,0.02566 -2.852701,-0.0011 z m 2.166024,-1.329735 c 2.211643,-0.171829 4.203736,-1.235747 4.431713,-2.366844 0.152311,-0.755692 -0.18808,-3.099329 -0.625589,-4.307234 -0.507524,-1.401219 -2.309251,-3.307432 -3.476,-3.677586 -0.539007,-0.171001 -0.607121,-0.310472 -0.533288,-1.091947 0.07226,-0.764789 0.229036,-0.976751 1.0928,-1.477426 2.150689,-1.246655 3.001805,-2.695213 3.472246,-5.909619 0.255449,-1.7453999 0.03995,-2.0449991 -1.093122,-1.5197377 -1.617877,0.7500041 -6.365166,0.7500041 -7.983044,0 -1.133072,-0.5252614 -1.348568,-0.2256622 -1.093123,1.5197377 0.470444,3.214406 1.321559,4.662964 3.472252,5.909619 0.873726,0.50645 1.022251,0.711425 1.095803,1.512249 0.04615,0.502502 -0.002,0.742176 -0.174169,0.868375 -0.048,0.03516 -0.0977,0.07604 -0.11045,0.09089 -0.01277,0.01485 -0.129462,0.05973 -0.259336,0.09976 -1.142573,0.352162 -2.963537,2.281992 -3.46834,3.675696 -0.437507,1.207905 -0.777898,3.551542 -0.625587,4.307235 0.28897,1.433727 3.13507,2.579886 5.877234,2.366843 z"
       id="path487-8" /></g></svg>
